HIERARCHY
ROOT reference
{
  OFFSET 0 0 0
  CHANNELS 6 Xposition Yposition Zposition Zrotation Xrotation Yrotation
  JOINT Hips
  {
    OFFSET -5.73281 77.7957 -10.9511
    CHANNELS 6 Xposition Yposition Zposition Zrotation Xrotation Yrotation
    JOINT Spine
    {
      OFFSET 0 7.57377 0
      CHANNELS 6 Xposition Yposition Zposition Zrotation Xrotation Yrotation
      JOINT Spine1
      {
        OFFSET 0 21.6353 0
        CHANNELS 6 Xposition Yposition Zposition Zrotation Xrotation Yrotation
        JOINT Neck
        {
          OFFSET 0 21.5464 1.95876
          CHANNELS 6 Xposition Yposition Zposition Zrotation Xrotation Yrotation
          JOINT Head
          {
            OFFSET 0 12.9308 -1.84726
            CHANNELS 6 Xposition Yposition Zposition Zrotation Xrotation Yrotation
            End Site
            {
              OFFSET 0 23.0907 0
            }
          }
        }
        JOINT LeftShoulder
        {
          OFFSET 3.70822 19.5981 -0.368577
          CHANNELS 6 Xposition Yposition Zposition Zrotation Xrotation Yrotation
          JOINT LeftArm
          {
            OFFSET 11.1726 0 0
            CHANNELS 6 Xposition Yposition Zposition Zrotation Xrotation Yrotation
            JOINT LeftForeArm
            {
              OFFSET 28.6421 0 0
              CHANNELS 6 Xposition Yposition Zposition Zrotation Xrotation Yrotation
              JOINT LeftHand
              {
                OFFSET 23.9346 0 0
                CHANNELS 6 Xposition Yposition Zposition Zrotation Xrotation Yrotation
                End Site
                {
                  OFFSET 13.8545 0 0
                }
              }
            }
          }
        }
        JOINT RightShoulder
        {
          OFFSET -3.63664 19.5981 -0.368577
          CHANNELS 6 Xposition Yposition Zposition Zrotation Xrotation Yrotation
          JOINT RightArm
          {
            OFFSET -11.1726 0 0
            CHANNELS 6 Xposition Yposition Zposition Zrotation Xrotation Yrotation
            JOINT RightForeArm
            {
              OFFSET -28.6421 0 0
              CHANNELS 6 Xposition Yposition Zposition Zrotation Xrotation Yrotation
              JOINT RightHand
              {
                OFFSET -23.9346 0 0
                CHANNELS 6 Xposition Yposition Zposition Zrotation Xrotation Yrotation
                End Site
                {
                  OFFSET -13.8545 0 0
                }
              }
            }
          }
        }
      }
    }
    JOINT LeftUpLeg
    {
      OFFSET 9.2363 0 0
      CHANNELS 6 Xposition Yposition Zposition Zrotation Xrotation Yrotation
      JOINT LeftLeg
      {
        OFFSET 0 -40.7061 0
        CHANNELS 6 Xposition Yposition Zposition Zrotation Xrotation Yrotation
        JOINT LeftFoot
        {
          OFFSET 0 -40.9975 0
          CHANNELS 6 Xposition Yposition Zposition Zrotation Xrotation Yrotation
          JOINT LeftToeBase
          {
            OFFSET 0 -6.00359 13.8545
            CHANNELS 6 Xposition Yposition Zposition Zrotation Xrotation Yrotation
            End Site
            {
              OFFSET 0 0 3.69452
            }
          }
        }
      }
    }
    JOINT RightUpLeg
    {
      OFFSET -9.2363 0 0
      CHANNELS 6 Xposition Yposition Zposition Zrotation Xrotation Yrotation
      JOINT RightLeg
      {
        OFFSET 0 -40.7061 0
        CHANNELS 6 Xposition Yposition Zposition Zrotation Xrotation Yrotation
        JOINT RightFoot
        {
          OFFSET 0 -40.9975 0
          CHANNELS 6 Xposition Yposition Zposition Zrotation Xrotation Yrotation
          JOINT RightToeBase
          {
            OFFSET 0 -6.00359 13.8545
            CHANNELS 6 Xposition Yposition Zposition Zrotation Xrotation Yrotation
            End Site
            {
              OFFSET 0 0 3.69452
            }
          }
        }
      }
    }
  }
}
MOTION
Frames:	9
Frame Time:	0.004
0 0 0 0 0 -0 -16.925 80.9718 -175.534 0.546447 0.343058 8.6486 -1.77636e-015 7.57377 0 -2.79259 -9.14721 0.226989 -3.55271e-015 21.6353 2.84217e-014 1.94137 -1.6495 0.47876 -3.55271e-015 21.5464 1.95876 -4.08122 16.0794 4.29291 0 12.9308 -1.84726 5.0265 19.2872 4.33757 3.70822 19.5981 -0.368577 -7.83198 -3.92386 13.3795 11.1726 0 -2.84217e-014 6.30852 -5.44108 -35.055 28.6421 2.84217e-014 0 -9.1567 5.09673 10.9529 23.9346 0 0 18.5903 4.76812 -7.37954 -3.63664 19.5981 -0.368577 -15.1245 -0.688842 -3.78418 -11.1726 0 0 21.6412 -0.059325 9.3277 -28.6421 0 -2.84217e-014 0.081047 3.57778 -5.55614 -23.9346 -2.84217e-014 0 -15.8879 4.18709 -4.3457 9.2363 0 0 0.657683 2.77679 2.93131 -7.10543e-015 -40.7061 0 0.455871 3.35174 5.45056 0 -40.9975 0 1.44977 -18.5565 -14.2078 2.66454e-015 -6.00359 13.8545 -8.94531e-016 1.59028e-015 -0 -9.2363 1.42109e-014 0 -4.4939 5.56515 -0.628363 0 -40.7061 -2.84217e-014 3.33724 5.30535 4.27118 7.10543e-015 -40.9975 -2.84217e-014 -13.608 -18.2872 -12.0633 -3.55271e-015 -6.00359 13.8545 8.44835e-016 3.18055e-015 1.19271e-015 
0 0 0 0 0 -0 -16.9276 80.9718 -175.533 0.543943 0.358367 8.65726 1.77636e-015 7.57377 0 -2.79244 -9.15924 0.227111 -3.55271e-015 21.6353 0 1.9431 -1.65121 0.478885 -3.55271e-015 21.5464 1.95876 -4.09667 16.1171 4.26963 0 12.9308 -1.84726 5.03868 19.2328 4.31408 3.70822 19.5981 -0.368577 -7.8278 -3.92394 13.3797 11.1726 -2.84217e-014 0 6.39307 -5.29996 -35.0636 28.6421 -2.84217e-014 0 -9.15813 5.0556 10.9255 23.9346 0 0 18.4732 4.73914 -7.33956 -3.63664 19.5981 -0.368577 -15.1389 -0.700055 -3.79328 -11.1726 2.84217e-014 2.84217e-014 21.6612 -0.0463011 9.32529 -28.6421 0 0 0.0318816 3.61837 -5.5548 -23.9346 0 0 -15.5882 4.21382 -4.34647 9.2363 1.42109e-014 0 0.66062 2.7518 2.91181 0 -40.7061 0 0.448292 3.36042 5.48179 0 -40.9975 -2.84217e-014 1.47255 -18.5575 -14.2347 0 -6.00359 13.8545 3.97569e-016 0 -0 -9.2363 0 0 -4.49398 5.54727 -0.623062 0 -40.7061 0 3.33693 5.31097 4.27982 3.55271e-015 -40.9975 0 -13.6419 -18.2846 -12.0943 3.55271e-015 -6.00359 13.8545 3.62782e-015 -3.18055e-015 -7.95139e-016 
0 0 0 0 0 -0 -16.9309 80.9718 -175.533 0.543425 0.365694 8.67246 1.77636e-015 7.57377 0 -2.79228 -9.1644 0.227067 3.55271e-015 21.6353 0 1.93865 -1.65335 0.478834 0 21.5464 1.95876 -4.07189 16.0606 4.28161 0 12.9308 -1.84726 5.02939 19.3387 4.32404 3.70822 19.5981 -0.368577 -7.82798 -3.92375 13.3801 11.1726 0 0 6.51676 -5.11764 -35.0599 28.6421 -2.84217e-014 0 -9.16885 5.01539 10.8916 23.9346 0 0 18.3972 4.7068 -7.31107 -3.63664 19.5981 -0.368577 -15.1411 -0.711721 -3.80551 -11.1726 0 0 21.6731 -0.0260633 9.32223 -28.6421 0 0 0.0116696 3.6198 -5.55188 -23.9346 0 0 -15.5473 4.21023 -4.32832 9.2363 0 2.84217e-014 0.66309 2.73878 2.89149 3.55271e-015 -40.7061 0 0.446557 3.36173 5.48786 -7.10543e-015 -40.9975 5.68434e-014 1.45179 -18.5603 -14.2524 8.88178e-016 -6.00359 13.8545 9.93923e-016 1.59028e-015 -3.97569e-016 -9.2363 0 0 -4.49337 5.5389 -0.622684 0 -40.7061 2.84217e-014 3.33889 5.31745 4.27125 0 -40.9975 0 -13.6445 -18.2846 -12.0987 0 -6.00359 13.8545 -2.38542e-015 0 -0 
0 0 0 0 0 -0 -16.9345 80.9717 -175.533 0.544274 0.371472 8.68497 -3.55271e-015 7.57377 2.84217e-014 -2.7924 -9.17007 0.225865 0 21.6353 0 1.93812 -1.65551 0.477477 0 21.5464 1.95876 -4.08592 16.0966 4.25488 -7.10543e-015 12.9308 -1.84726 5.0359 19.2891 4.29696 3.70822 19.5981 -0.368577 -7.81824 -3.92111 13.3804 11.1726 0 0 6.6093 -4.95533 -35.0727 28.6421 0 0 -9.17674 4.98814 10.8656 23.9346 2.84217e-014 0 18.2918 4.68811 -7.29215 -3.63664 19.5981 -0.368577 -15.1531 -0.729134 -3.80613 -11.1726 -2.84217e-014 0 21.6945 -0.0297808 9.29945 -28.6421 0 -2.84217e-014 0.0450825 3.58116 -5.53329 -23.9346 -2.84217e-014 0 -15.919 4.18338 -4.299 9.2363 0 2.84217e-014 0.663607 2.71804 2.88074 0 -40.7061 0 0.447384 3.39746 5.44642 0 -40.9975 0 1.44146 -18.5691 -14.1867 8.88178e-016 -6.00359 13.8545 -2.38542e-015 0 3.97569e-016 -9.2363 0 0 -4.49424 5.53118 -0.623945 3.55271e-015 -40.7061 0 3.3419 5.32663 4.28926 -3.55271e-015 -40.9975 0 -13.6248 -18.2896 -12.1259 7.10543e-015 -6.00359 13.8545 -1.59028e-015 0 -7.95139e-016 
0 0 0 0 0 -0 -16.937 80.9716 -175.533 0.549328 0.392754 8.6974 3.55271e-015 7.57377 -2.84217e-014 -2.79283 -9.18631 0.224052 -3.55271e-015 21.6353 0 1.92746 -1.6576 0.475915 0 21.5464 1.95876 -4.06381 16.0479 4.26405 -7.10543e-015 12.9308 -1.84726 5.04157 19.3738 4.30424 3.70822 19.5981 -0.368577 -7.80036 -3.91996 13.3808 11.1726 0 0 6.70748 -4.78839 -35.0888 28.6421 0 0 -9.18966 4.95665 10.839 23.9346 2.84217e-014 -2.84217e-014 18.1635 4.6699 -7.25545 -3.63664 19.5981 -0.368577 -15.1518 -0.737696 -3.82097 -11.1726 2.84217e-014 -2.84217e-014 21.7064 -0.0515011 9.29907 -28.6421 0 -2.84217e-014 0.00933552 3.6322 -5.52936 -23.9346 0 -2.84217e-014 -15.6252 4.22077 -4.29385 9.2363 1.42109e-014 0 0.654081 2.68996 2.84434 -3.55271e-015 -40.7061 -2.84217e-014 0.445183 3.39819 5.50092 0 -40.9975 0 1.46295 -18.568 -14.2339 0 -6.00359 13.8545 -9.93923e-017 3.18055e-015 3.97569e-016 -9.2363 1.42109e-014 0 -4.50504 5.50813 -0.624609 0 -40.7061 0 3.35152 5.33084 4.28386 3.55271e-015 -40.9975 2.84217e-014 -13.6171 -18.3033 -12.1328 0 -6.00359 13.8545 -8.94531e-016 -1.59028e-015 -0 
0 0 0 0 0 -0 -16.9391 80.9716 -175.536 0.552271 0.411775 8.71343 1.77636e-015 7.57377 -2.84217e-014 -2.79483 -9.20017 0.222312 -3.55271e-015 21.6353 0 1.92016 -1.65956 0.474468 -3.55271e-015 21.5464 1.95876 -4.06783 16.0316 4.25783 0 12.9308 -1.84726 5.06642 19.4125 4.29589 3.70822 19.5981 -0.368577 -7.79596 -3.919 13.3811 11.1726 0 2.84217e-014 6.88622 -4.50102 -35.0958 28.6421 0 0 -9.18517 4.87962 10.7729 23.9346 -2.84217e-014 2.84217e-014 18.0373 4.6085 -7.17189 -3.63664 19.5981 -0.368577 -15.1642 -0.747712 -3.82126 -11.1726 0 0 21.7328 -0.0129168 9.27374 -28.6421 2.84217e-014 0 0.0243648 3.57702 -5.51558 -23.9346 2.84217e-014 -2.84217e-014 -15.9418 4.17608 -4.27716 9.2363 0 -2.84217e-014 0.656254 2.66026 2.81359 3.55271e-015 -40.7061 0 0.435029 3.41341 5.48165 0 -40.9975 0 1.45085 -18.5653 -14.2056 0 -6.00359 13.8545 -0 0 3.97569e-016 -9.2363 0 -2.84217e-014 -4.51323 5.49131 -0.619045 -3.55271e-015 -40.7061 0 3.36607 5.32921 4.29951 0 -40.9975 -2.84217e-014 -13.642 -18.3017 -12.178 -3.55271e-015 -6.00359 13.8545 -7.95139e-016 1.59028e-015 3.97569e-016 
0 0 0 0 0 -0 -16.9411 80.9715 -175.539 0.55704 0.425609 8.73251 3.55271e-015 7.57377 0 -2.80087 -9.20881 0.220515 0 21.6353 2.84217e-014 1.91213 -1.66014 0.473003 3.55271e-015 21.5464 1.95876 -4.0796 16.0739 4.23807 0 12.9308 -1.84726 5.07949 19.348 4.27634 3.70822 19.5981 -0.368577 -7.78589 -3.91809 13.3813 11.1726 0 0 7.0011 -4.32186 -35.1093 28.6421 0 0 -9.20876 4.86512 10.7437 23.9346 -2.84217e-014 -2.84217e-014 17.9206 4.60679 -7.13733 -3.63664 19.5981 -0.368577 -15.1715 -0.748186 -3.81436 -11.1726 0 -2.84217e-014 21.7604 -0.00150518 9.24947 -28.6421 -2.84217e-014 0 0.0104481 3.56834 -5.4924 -23.9346 0 -2.84217e-014 -15.9868 4.16858 -4.27808 9.2363 -1.42109e-014 2.84217e-014 0.653376 2.63827 2.77319 -3.55271e-015 -40.7061 2.84217e-014 0.43343 3.41609 5.47598 0 -40.9975 0 1.43964 -18.5402 -14.2001 0 -6.00359 13.8545 1.2921e-015 1.59028e-015 -7.95139e-016 -9.2363 -1.42109e-014 0 -4.51909 5.47632 -0.638253 0 -40.7061 0 3.36657 5.33244 4.32516 7.10543e-015 -40.9975 -2.84217e-014 -13.6486 -18.3003 -12.1977 0 -6.00359 13.8545 3.18055e-015 1.59028e-015 -3.97569e-016 
0 0 0 0 0 -0 -16.943 80.9714 -175.543 0.563137 0.434148 8.74717 0 7.57377 0 -2.80668 -9.21112 0.218534 3.55271e-015 21.6353 0 1.90592 -1.66344 0.471412 3.55271e-015 21.5464 1.95876 -4.07613 16.0753 4.21967 3.55271e-015 12.9308 -1.84726 5.09126 19.3441 4.257 3.70822 19.5981 -0.368577 -7.78024 -3.91722 13.3814 11.1726 2.84217e-014 0 7.12809 -4.13083 -35.1308 28.6421 0 0 -9.23502 4.85247 10.711 23.9346 0 0 17.7914 4.60815 -7.09931 -3.63664 19.5981 -0.368577 -15.176 -0.748121 -3.83806 -11.1726 0 2.84217e-014 21.7797 0.0268491 9.24159 -28.6421 -2.84217e-014 0 -0.037482 3.59329 -5.48549 -23.9346 0 0 -15.7617 4.18039 -4.26163 9.2363 0 0 0.648761 2.61755 2.73459 -3.55271e-015 -40.7061 -2.84217e-014 0.426418 3.45951 5.27116 0 -40.9975 0 1.52236 -18.5595 -13.9169 8.88178e-016 -6.00359 13.8545 -3.97569e-016 1.59028e-015 -0 -9.2363 1.42109e-014 -2.84217e-014 -4.52176 5.47206 -0.62845 0 -40.7061 0 3.36739 5.33737 4.31938 0 -40.9975 -2.84217e-014 -13.6921 -18.299 -12.2155 0 -6.00359 13.8545 9.44227e-016 0 7.95139e-016 
0 0 0 0 0 -0 -16.9455 80.9713 -175.548 0.561359 0.451395 8.76992 1.77636e-015 7.57377 2.84217e-014 -2.80058 -9.21891 0.21625 -3.55271e-015 21.6353 2.84217e-014 1.88328 -1.67207 0.469586 -3.55271e-015 21.5464 1.95876 -4.04951 16.0065 4.22383 -7.10543e-015 12.9308 -1.84726 5.10672 19.4573 4.25811 3.70822 19.5981 -0.368577 -7.76288 -3.91637 13.3812 11.1726 0 0 7.27717 -3.89226 -35.1496 28.6421 0 0 -9.26283 4.84651 10.6761 23.9346 -2.84217e-014 0 17.9626 4.59727 -7.06043 -3.63664 19.5981 -0.368577 -15.1732 -0.748269 -3.84479 -11.1726 -2.84217e-014 0 21.8074 0.0344717 9.22052 -28.6421 0 -2.84217e-014 -0.0637504 3.58875 -5.47162 -23.9346 0 0 -15.7734 4.17135 -4.23499 9.2363 0 0 0.654052 2.58099 2.69036 0 -40.7061 -2.84217e-014 0.420027 3.47836 5.37749 0 -40.9975 0 1.5038 -18.5594 -14.0223 -8.88178e-016 -6.00359 13.8545 -4.96962e-016 1.59028e-015 -7.95139e-016 -9.2363 0 0 -4.52128 5.4525 -0.664858 -3.55271e-015 -40.7061 2.84217e-014 3.36671 5.34033 4.33366 3.55271e-015 -40.9975 2.84217e-014 -13.7068 -18.2943 -12.2146 -3.55271e-015 -6.00359 13.8545 -9.44227e-016 0 -3.97569e-016 
